# Blender v3.5.0 OBJ File: 'AL.blend'
# www.blender.org
mtllib body.mtl
o body_立方体.001
v 0.343292 0.263079 -0.280545
v 0.203544 2.036321 -0.318796
v 0.343292 0.263079 0.280545
v 0.203544 2.036321 0.318796
v -0.343292 0.263079 -0.280545
v -0.203544 2.036321 -0.318796
v -0.343292 0.263079 0.280545
v -0.203544 2.036321 0.318796
v 0.628541 1.149700 -0.628541
v 0.628541 1.149700 0.628541
v -0.628541 1.149700 0.628541
v -0.628541 1.149700 -0.628541
vt 0.417799 0.164770
vt 0.286402 0.099072
vt 0.417799 0.099072
vt 0.155005 0.099072
vt 0.023608 0.164770
vt 0.023608 0.099072
vt 0.155005 0.296167
vt 0.023608 0.230469
vt 0.155005 0.230469
vt 0.286402 0.099072
vt 0.155005 0.164770
vt 0.155005 0.099072
vt 0.286402 0.164770
vt 0.155005 0.296167
vt 0.155005 0.164770
vt 0.155005 0.296167
vt 0.023608 0.427564
vt 0.023608 0.296167
vt 0.155005 0.033373
vt 0.286402 0.033373
vt 0.023608 0.164770
vt 0.155005 0.164770
vt 0.023608 0.033373
vt 0.155005 0.033373
vt 0.286402 0.033373
vt 0.417799 0.033373
vt 0.286402 0.164770
vt 0.155005 0.164770
vt 0.023608 0.296167
vt 0.286402 0.164770
vt 0.286402 0.296167
vt 0.155005 0.427564
vn 0.9018 0.4323 0.0000
vn 0.0000 0.3298 0.9440
vn -0.9018 0.4323 0.0000
vn 0.0000 0.3298 -0.9440
vn 0.0000 -1.0000 0.0000
vn 0.0000 1.0000 0.0000
vn 0.0000 -0.3654 -0.9309
vn -0.9519 -0.3063 0.0000
vn 0.0000 -0.3654 0.9309
vn 0.9519 -0.3063 0.0000
usemtl マテリアル.001
s off
f 2/1/1 10/2/1 9/3/1
f 10/4/2 8/5/2 11/6/2
f 8/7/3 12/8/3 11/9/3
f 12/10/4 2/11/4 9/12/4
f 7/13/5 1/14/5 3/15/5
f 4/16/6 6/17/6 8/18/6
f 12/10/7 1/19/7 5/20/7
f 11/9/8 5/21/8 7/22/8
f 10/4/9 7/23/9 3/24/9
f 9/3/10 3/25/10 1/26/10
f 2/1/1 4/27/1 10/2/1
f 10/4/2 4/28/2 8/5/2
f 8/7/3 6/29/3 12/8/3
f 12/10/4 6/30/4 2/11/4
f 7/13/5 5/31/5 1/14/5
f 4/16/6 2/32/6 6/17/6
f 12/10/7 9/12/7 1/19/7
f 11/9/8 12/8/8 5/21/8
f 10/4/9 11/6/9 7/23/9
f 9/3/10 10/2/10 3/25/10
