# Blender v3.5.0 OBJ File: ''
# www.blender.org
mtllib enemyBody.mtl
o Cube.001
v -0.500000 0.897076 -0.880876
v -1.000000 1.000000 -0.006536
v -0.500000 1.000000 -0.006536
v -1.000000 0.000000 -0.006536
v -1.265587 0.482206 -0.597193
v -1.000000 -0.000000 -1.000000
v 0.500000 0.897076 -0.880876
v 1.000000 -0.000000 -1.000000
v 0.500000 -0.000000 -1.000000
v -0.500000 -0.897076 0.880876
v -1.000000 -1.000000 -0.006536
v -0.500000 -1.000000 -0.006536
v -0.500000 0.897076 0.880876
v -1.000000 0.000000 1.000000
v -0.500000 0.000000 1.000000
v 1.000000 0.000000 -0.006536
v 1.265587 0.482206 0.597193
v 1.000000 0.000000 1.000000
v 1.265587 -0.482206 0.597193
v 1.000000 -1.000000 -0.006536
v -1.265587 -0.482206 0.597193
v 0.500000 -0.897076 -0.880876
v 1.265587 -0.482206 -0.597193
v -1.265587 -0.482206 -0.597193
v 1.265587 0.482206 -0.597193
v -0.500000 -0.897076 -0.880876
v -1.265587 0.482206 0.597193
v 0.500000 0.897076 0.880876
v -0.000000 1.398869 -0.006536
v 0.000000 1.000000 1.000000
v -0.000000 -1.398868 -0.006536
v -0.000000 -1.000000 -1.000000
v -0.500000 -0.000000 -1.000000
v 0.500000 0.000000 1.000000
v 0.000000 -1.000000 1.000000
v 0.500000 -0.897076 0.880876
v 0.000000 0.000000 1.522829
v 0.500000 -1.000000 -0.006536
v -0.000000 1.000000 -1.000000
v -0.000000 -0.000000 -1.522829
v 0.500000 1.000000 -0.006536
v 1.000000 1.000000 -0.006536
vt 0.520989 0.936530
vt 0.481155 0.959539
vt 0.480058 0.938640
vt 0.176778 0.907261
vt 0.130819 0.898908
vt 0.135694 0.863084
vt 0.316621 0.977495
vt 0.286424 0.922270
vt 0.313123 0.923737
vt 0.518852 0.769043
vt 0.476258 0.787838
vt 0.477316 0.766935
vt 0.404775 0.804843
vt 0.374577 0.751281
vt 0.401277 0.749815
vt 0.065505 0.907816
vt 0.068749 0.859311
vt 0.107091 0.862992
vt 0.111948 0.898869
vt 0.110298 0.948833
vt 0.404775 0.696057
vt 0.372223 0.724971
vt 0.316621 0.868708
vt 0.284069 0.890104
vt 0.173984 0.859312
vt 0.221536 0.866204
vt 0.223378 0.912423
vt 0.062601 0.952058
vt 0.019402 0.912501
vt 0.024460 0.952058
vt 0.437276 0.769043
vt 0.450583 0.809546
vt 0.180213 0.952020
vt 0.218404 0.952020
vt 0.439444 0.936530
vt 0.456109 0.960026
vt 0.437251 0.894733
vt 0.477178 0.925917
vt 0.432373 0.917741
vt 0.361357 0.905679
vt 0.385915 0.944964
vt 0.351878 0.908623
vt 0.172870 0.741653
vt 0.146170 0.679553
vt 0.176367 0.686625
vt 0.061453 0.738720
vt 0.034754 0.679553
vt 0.064951 0.684962
vt 0.034754 0.800821
vt 0.019402 0.737397
vt 0.520969 0.727237
vt 0.476651 0.737862
vt 0.479433 0.725129
vt 0.146170 0.800821
vt 0.130819 0.742976
vt 0.518796 0.894733
vt 0.477866 0.896842
vt 0.476769 0.875943
vt 0.480492 0.704225
vt 0.088152 0.737253
vt 0.064951 0.793749
vt 0.114162 0.709385
vt 0.439392 0.727237
vt 0.455941 0.703727
vt 0.450558 0.854229
vt 0.373730 0.865518
vt 0.390629 0.824305
vt 0.349275 0.856189
vt 0.199569 0.743120
vt 0.176367 0.795411
vt 0.225578 0.712512
vt 0.300138 0.696057
vt 0.267688 0.747942
vt 0.255154 0.744219
vt 0.432373 0.746032
vt 0.306480 0.854316
vt 0.284175 0.800427
vt 0.313732 0.846708
vt 0.252134 0.812879
vt 0.511392 0.960026
vt 0.132021 0.948319
vt 0.284069 0.948580
vt 0.505888 0.809546
vt 0.372223 0.783447
vt 0.020712 0.866799
vt 0.396119 0.927202
vt 0.524981 0.746032
vt 0.524946 0.917741
vt 0.505841 0.854229
vt 0.511246 0.703727
vt 0.114162 0.767861
vt 0.396119 0.830040
vt 0.225578 0.770988
vt 0.313732 0.719173
vn -0.0000 0.9931 -0.1169
vn -0.8759 -0.4824 0.0000
vn 0.0000 0.1316 -0.9913
vn 0.0000 -0.9933 0.1152
vn 0.0000 0.1316 0.9913
vn 0.8759 -0.4824 -0.0000
vn 0.9153 -0.0000 -0.4027
vn -0.4953 -0.3798 0.7813
vn 0.4953 -0.3798 -0.7813
vn -0.9120 0.0000 0.4101
vn -0.9153 -0.0000 -0.4027
vn 0.9120 0.0000 0.4101
vn -0.5468 -0.7359 -0.3993
vn -0.5464 0.7392 0.3936
vn 0.2689 0.8954 0.3548
vn 0.2694 -0.8937 -0.3588
vn -0.2546 -0.1273 -0.9586
vn 0.2546 -0.1273 0.9586
vn 0.6797 0.3398 0.6500
vn 0.6211 -0.7785 0.0903
vn -0.6797 0.3398 -0.6500
vn 0.6210 0.7784 -0.0916
vn 0.4953 -0.3798 0.7813
vn 0.5468 -0.7359 -0.3993
vn 0.5464 0.7392 0.3936
vn 0.2546 -0.1273 -0.9586
vn 0.6797 0.3398 -0.6500
vn -0.4953 -0.3798 -0.7813
vn -0.2689 0.8954 0.3548
vn -0.2694 -0.8937 -0.3588
vn -0.2546 -0.1273 0.9586
vn -0.6797 0.3398 0.6500
vn -0.6211 -0.7785 0.0903
vn -0.6210 0.7784 -0.0916
vn -0.5468 0.7359 -0.3993
vn 0.4953 0.3798 -0.7813
vn -0.5464 -0.7392 0.3936
vn -0.4953 0.3798 0.7813
vn 0.8759 0.4824 -0.0000
vn 0.0000 -0.1316 0.9913
vn 0.0000 -0.1316 -0.9913
vn -0.8759 0.4824 0.0000
vn -0.0000 -0.9931 -0.1169
vn 0.0000 0.9933 0.1152
vn 0.6211 0.7785 0.0903
vn 0.6210 -0.7784 -0.0916
vn -0.6797 -0.3398 -0.6500
vn 0.6797 -0.3398 0.6500
vn 0.2546 0.1273 0.9586
vn 0.2689 -0.8954 0.3548
vn -0.2546 0.1273 -0.9586
vn 0.2694 0.8937 -0.3588
vn 0.5468 0.7359 -0.3993
vn 0.5464 -0.7392 0.3936
vn 0.4953 0.3798 0.7813
vn 0.6797 -0.3398 -0.6500
vn 0.2546 0.1273 -0.9586
vn -0.4953 0.3798 -0.7813
vn -0.6211 0.7785 0.0903
vn -0.6210 -0.7784 -0.0916
vn -0.6797 -0.3398 0.6500
vn -0.2546 0.1273 0.9586
vn -0.2689 -0.8954 0.3548
vn -0.2694 0.8937 -0.3588
usemtl Material.001
s 1
f 1/1/1 2/2/1 3/3/1
f 4/4/2 5/5/2 6/6/2
f 7/7/3 8/8/3 9/9/3
f 10/10/4 11/11/4 12/12/4
f 13/13/5 14/14/5 15/15/5
f 16/16/6 17/17/6 18/18/6
f 16/16/7 19/19/7 20/20/7
f 10/21/8 14/14/8 21/22/8
f 22/23/9 8/8/9 23/24/9
f 4/4/10 24/25/10 11/26/10
f 21/27/11 4/4/11 11/26/11
f 23/28/12 16/16/12 20/20/12
f 25/29/6 16/16/6 8/30/6
f 26/31/13 11/11/13 24/32/13
f 27/33/2 4/4/2 14/34/2
f 13/35/14 2/2/14 27/36/14
f 28/37/15 29/38/15 30/39/15
f 22/40/16 31/41/16 32/42/16
f 33/43/17 32/44/17 26/45/17
f 34/46/18 35/47/18 36/48/18
f 34/46/19 30/49/19 37/50/19
f 36/51/20 31/52/20 38/53/20
f 33/43/21 39/54/21 40/55/21
f 7/56/22 29/38/22 41/57/22
f 42/58/1 7/56/1 41/57/1
f 20/59/4 36/51/4 38/53/4
f 18/60/5 28/61/5 34/46/5
f 18/60/23 36/48/23 19/62/23
f 20/59/24 22/63/24 23/64/24
f 42/58/25 28/37/25 17/65/25
f 32/42/26 9/66/26 22/40/26
f 39/67/27 9/66/27 40/68/27
f 6/69/3 1/70/3 33/43/3
f 6/69/28 26/45/28 24/71/28
f 29/72/29 13/73/29 30/74/29
f 31/52/30 26/31/30 32/75/30
f 35/76/31 15/77/31 10/78/31
f 30/74/32 15/77/32 37/79/32
f 31/52/33 10/10/33 12/12/33
f 29/38/34 1/1/34 3/3/34
f 1/1/35 5/80/35 2/2/35
f 4/4/10 2/81/10 5/5/10
f 7/7/36 25/82/36 8/8/36
f 10/10/37 21/83/37 11/11/37
f 13/13/38 27/84/38 14/14/38
f 16/16/7 42/85/7 17/17/7
f 16/16/39 18/18/39 19/19/39
f 10/21/40 15/15/40 14/14/40
f 22/23/41 9/9/41 8/8/41
f 4/4/42 6/6/42 24/25/42
f 21/27/42 14/34/42 4/4/42
f 23/28/39 8/30/39 16/16/39
f 25/29/12 42/85/12 16/16/12
f 26/31/43 12/12/43 11/11/43
f 27/33/11 2/81/11 4/4/11
f 13/35/44 3/3/44 2/2/44
f 28/37/45 41/57/45 29/38/45
f 22/40/46 38/86/46 31/41/46
f 33/43/47 40/55/47 32/44/47
f 34/46/48 37/50/48 35/47/48
f 34/46/49 28/61/49 30/49/49
f 36/51/50 35/87/50 31/52/50
f 33/43/51 1/70/51 39/54/51
f 7/56/52 39/88/52 29/38/52
f 42/58/53 25/89/53 7/56/53
f 20/59/54 19/90/54 36/51/54
f 18/60/55 17/91/55 28/61/55
f 18/60/40 34/46/40 36/48/40
f 20/59/43 38/53/43 22/63/43
f 42/58/44 41/57/44 28/37/44
f 32/42/56 40/68/56 9/66/56
f 39/67/57 7/92/57 9/66/57
f 6/69/58 5/93/58 1/70/58
f 6/69/41 33/43/41 26/45/41
f 29/72/59 3/94/59 13/73/59
f 31/52/60 12/12/60 26/31/60
f 35/76/61 37/79/61 15/77/61
f 30/74/62 13/73/62 15/77/62
f 31/52/63 35/87/63 10/10/63
f 29/38/64 39/88/64 1/1/64
