# Blender v3.5.0 OBJ File: 'player.blend'
# www.blender.org
mtllib head.mtl
o 頭_立方体.009
v 0.394527 0.331238 -0.000176
v 0.394527 0.990492 -0.000176
v 0.394527 0.331238 0.000176
v 0.394527 0.990492 0.000176
v -0.394527 0.331238 -0.000176
v -0.394527 0.990492 -0.000176
v -0.394527 0.331238 0.000176
v -0.394527 0.990492 0.000176
v 0.394526 0.660865 -0.303186
v 0.394526 0.660865 0.303186
v -0.394526 0.660865 0.303186
v -0.394526 0.660865 -0.303186
v 0.394527 0.331238 0.000000
v 0.394527 0.990493 0.000000
v -0.394527 0.331238 0.000000
v -0.394527 0.990493 0.000000
v -0.789052 0.660865 0.000000
v 0.789052 0.660865 0.000000
v 0.000000 0.001612 0.000176
v 0.000000 1.320118 0.000176
v 0.000000 0.001612 -0.000176
v 0.000000 1.320118 -0.000176
v 0.000000 0.660865 -0.606373
v 0.000000 0.660865 0.606373
v 0.000000 1.320118 0.000000
v 0.000000 0.001612 0.000000
vt 1.000000 0.829302
vt 0.833366 0.733021
vt 1.000000 0.636852
vt 0.314330 0.000000
vt 0.157210 0.222136
vt 0.157187 0.055534
vt 0.000045 0.111068
vt 0.157119 0.222265
vt 0.000022 0.277735
vt 0.666667 0.829302
vt 0.500032 0.540682
vt 0.666667 0.636852
vt 0.166666 0.540627
vt 0.000032 0.636908
vt 0.000000 0.636852
vt 0.500000 0.540627
vt 0.333366 0.636908
vt 0.333333 0.636852
vt 0.314330 0.444402
vt 0.471449 0.222265
vt 0.628569 0.333398
vt 0.333333 0.444402
vt 0.166699 0.540682
vt 0.961993 0.000000
vt 0.795359 0.288619
vt 0.628692 0.192394
vt 0.314375 0.111068
vt 0.471540 0.222136
vt 0.471495 0.222201
vt 0.961993 0.384900
vt 0.795327 0.288675
vt 0.666699 0.636796
vt 0.833333 0.733077
vt 0.666667 0.636852
vt 0.628660 0.192450
vt 0.666667 0.444402
vt 0.628660 0.333269
vt 0.314330 0.333269
vt 0.157165 0.222201
vt 0.628660 0.000000
vt 0.333333 0.829302
vt 0.314239 0.333398
vt 0.000000 0.444402
vt 1.000000 0.444402
vt 0.314353 0.277735
vt 0.333333 0.636852
vt 0.961993 0.192450
vt 0.471518 0.055534
vt 0.628614 0.333333
vt 0.314284 0.333333
vn 0.4924 0.5890 0.6408
vn -0.4924 0.5890 0.6408
vn -0.4924 0.5890 -0.6408
vn 0.4924 0.5890 -0.6408
vn -0.6412 -0.7674 0.0000
vn 0.6412 0.7674 0.0000
vn 0.4923 -0.5892 -0.6407
vn -0.6412 -0.7674 -0.0013
vn -0.4923 -0.5892 0.6407
vn 0.6412 -0.7674 0.0013
vn 0.6412 -0.7674 -0.0013
vn -0.6412 -0.7674 0.0013
vn -0.6412 0.7674 0.0020
vn 0.4923 -0.5892 0.6407
vn -0.4923 -0.5892 -0.6407
vn -0.6412 0.7674 -0.0020
vn 0.6412 0.7674 0.0007
vn -0.4923 0.5892 0.6407
vn -0.6412 0.7674 -0.0007
vn 0.4923 0.5892 -0.6407
vn 0.6412 0.7674 -0.0020
vn 0.4924 -0.5890 -0.6408
vn -0.4924 -0.5890 -0.6408
vn -0.4924 -0.5890 0.6408
vn 0.4924 -0.5890 0.6408
vn 0.6412 0.7674 0.0020
vn -0.6412 0.7674 0.0007
vn 0.6412 0.7674 -0.0007
vn 0.6412 -0.7674 0.0000
vn -0.6412 0.7674 0.0000
vn -0.4923 0.5892 -0.6407
vn 0.4923 0.5892 0.6407
usemtl マテリアル.002
s off
f 18/1/1 4/2/1 10/3/1
f 24/4/2 8/5/2 11/6/2
f 17/7/3 6/8/3 12/9/3
f 23/10/4 2/11/4 9/12/4
f 15/13/5 21/14/5 26/15/5
f 14/16/6 22/17/6 25/18/6
f 23/19/7 1/20/7 21/21/7
f 17/22/8 5/23/8 15/13/8
f 24/24/9 7/25/9 19/26/9
f 18/27/10 3/28/10 13/29/10
f 1/20/11 18/27/11 13/29/11
f 7/25/12 17/30/12 15/31/12
f 20/32/6 14/33/6 25/34/6
f 19/26/5 15/31/5 26/35/5
f 8/5/2 17/7/2 11/6/2
f 2/11/4 18/36/4 9/12/4
f 19/37/10 13/29/10 3/28/10
f 20/38/13 16/39/13 8/5/13
f 3/28/14 24/40/14 19/37/14
f 5/23/15 23/41/15 21/14/15
f 16/39/16 22/42/16 6/8/16
f 13/29/11 21/21/11 1/20/11
f 6/8/3 23/43/3 12/9/3
f 4/2/1 24/44/1 10/3/1
f 18/1/17 14/33/17 4/2/17
f 24/4/18 20/38/18 8/5/18
f 17/7/19 16/39/19 6/8/19
f 23/10/20 22/17/20 2/11/20
f 15/13/8 5/23/8 21/14/8
f 14/16/21 2/11/21 22/17/21
f 23/19/22 9/45/22 1/20/22
f 17/22/23 12/46/23 5/23/23
f 24/24/24 11/47/24 7/25/24
f 18/27/25 10/48/25 3/28/25
f 1/20/22 9/45/22 18/27/22
f 7/25/24 11/47/24 17/30/24
f 20/32/26 4/2/26 14/33/26
f 19/26/12 7/25/12 15/31/12
f 8/5/27 16/39/27 17/7/27
f 2/11/28 14/16/28 18/36/28
f 19/37/29 26/49/29 13/29/29
f 20/38/30 25/50/30 16/39/30
f 3/28/25 10/48/25 24/40/25
f 5/23/23 12/46/23 23/41/23
f 16/39/30 25/50/30 22/42/30
f 13/29/29 26/49/29 21/21/29
f 6/8/31 22/42/31 23/43/31
f 4/2/32 20/32/32 24/44/32
