# Blender v3.5.0 OBJ File: 'AL.blend'
# www.blender.org
mtllib LArm.mtl
o LArm_立方体.002
v -0.762461 -0.934392 -0.270718
v -0.002135 0.163234 -0.342555
v -0.762461 -0.934392 0.270718
v -0.002135 0.163234 0.342555
v -0.892623 -0.695359 -0.096027
v -0.497845 0.163234 -0.096027
v -0.892623 -0.695359 0.096027
v -0.497845 0.163234 0.096027
v -0.881088 -0.934392 0.269377
v -0.301953 0.163234 0.269377
v -0.881088 -0.934392 -0.269377
v -0.301953 0.163234 -0.269377
v -0.002135 -0.181444 -0.465799
v -0.002135 -0.181444 0.465799
v -0.769989 -0.181444 0.096027
v -0.769989 -0.181444 -0.096027
v -0.603589 -0.181444 -0.269377
v -0.603589 -0.181444 0.269377
vt 0.189231 0.776342
vt 0.279985 0.789817
vt 0.189564 0.791768
vt 0.220528 0.923604
vt 0.231064 0.900706
vt 0.231653 0.927982
vt 0.243868 0.927718
vt 0.254187 0.894771
vt 0.282512 0.905576
vt 0.254793 0.922865
vt 0.232361 0.960797
vt 0.255889 0.973656
vt 0.221624 0.974395
vt 0.191664 0.887799
vt 0.219922 0.895510
vt 0.243279 0.900442
vt 0.253491 0.863841
vt 0.219025 0.859221
vt 0.253461 0.858478
vt 0.192090 0.907526
vt 0.221467 0.971107
vt 0.244576 0.960533
vt 0.255903 0.970364
vt 0.279653 0.774392
vt 0.282086 0.885848
vt 0.219226 0.864580
vn 1.0000 0.0000 0.0000
vn -0.6269 0.4949 0.6017
vn -0.7849 0.6197 0.0000
vn -0.2996 0.2622 -0.9173
vn -0.9988 -0.0482 0.0000
vn 0.0000 1.0000 0.0000
vn 0.0000 -1.0000 0.0000
vn -0.6269 0.4949 -0.6017
vn -0.2996 0.2622 0.9173
vn -0.0113 0.0042 0.9999
vn -0.8259 0.3044 -0.4747
vn -0.0113 0.0042 -0.9999
vn -0.9727 0.2321 0.0000
vn -0.8259 0.3044 0.4747
vn 0.7037 -0.7105 0.0000
vn -0.5733 0.5017 0.6478
vn -0.2240 0.3281 -0.9177
vn -0.5733 0.5017 -0.6478
vn -0.2240 0.3281 0.9177
vn -0.3097 0.0670 0.9485
vn -0.7110 0.1697 -0.6825
vn -0.3097 0.0670 -0.9485
vn -0.7110 0.1697 0.6825
usemtl マテリアル.002
s off
f 2/1/1 14/2/1 13/3/1
f 18/4/2 8/5/2 15/6/2
f 8/5/3 16/7/3 15/6/3
f 12/8/4 13/9/4 17/10/4
f 7/11/5 11/12/5 9/13/5
f 4/14/6 12/8/6 10/15/6
f 10/15/6 6/16/6 8/5/6
f 9/17/7 1/18/7 3/19/7
f 6/16/8 17/10/8 16/7/8
f 14/20/9 10/15/9 18/4/9
f 3/21/10 18/4/10 9/13/10
f 5/22/11 17/10/11 11/12/11
f 17/10/12 1/23/12 11/12/12
f 15/6/13 5/22/13 7/11/13
f 18/4/14 7/11/14 9/13/14
f 13/3/15 3/19/15 1/18/15
f 2/1/1 4/24/1 14/2/1
f 18/4/16 10/15/16 8/5/16
f 8/5/3 6/16/3 16/7/3
f 12/8/17 2/25/17 13/9/17
f 7/11/5 5/22/5 11/12/5
f 4/14/6 2/25/6 12/8/6
f 10/15/6 12/8/6 6/16/6
f 9/17/7 11/26/7 1/18/7
f 6/16/18 12/8/18 17/10/18
f 14/20/19 4/14/19 10/15/19
f 3/21/20 14/20/20 18/4/20
f 5/22/21 16/7/21 17/10/21
f 17/10/22 13/9/22 1/23/22
f 15/6/13 16/7/13 5/22/13
f 18/4/23 15/6/23 7/11/23
f 13/3/15 14/2/15 3/19/15
