# Blender 4.3.2
# www.blender.org
mtllib target.mtl
g Cube_Mesh
v -0.282942 0.174465 0.304739
v -0.282942 -0.174465 0.304739
v -0.282942 0.174465 -0.304739
v -0.282942 -0.174465 -0.304739
v 0.282942 0.174465 0.304739
v 0.282942 -0.174465 0.304739
v 0.282942 0.174465 -0.304739
v 0.282942 -0.174465 -0.304739
v 0.000000 -0.174465 1.000000
v 0.000000 0.174465 -1.000000
v 0.000000 -0.174465 -1.000000
v 0.000000 0.174465 1.000000
v -0.871347 0.000000 0.754755
v 0.871347 0.000000 -0.754755
v -0.871347 0.000000 -0.754755
v 0.871347 0.000000 0.754755
v 0.000000 0.000000 1.450016
v 0.000000 0.000000 -1.450016
v 1.000000 -0.174465 0.000000
v -1.000000 0.174465 0.000000
v 1.000000 0.174465 0.000000
v -1.000000 -0.174465 0.000000
v 0.000000 -1.000000 0.000000
v 0.000000 1.000000 0.000000
v -1.588405 0.000000 0.000000
v 1.588405 0.000000 0.000000
vn 0.8426 0.4154 -0.3429
vn 0.2771 0.8959 -0.3473
vn 0.2744 0.9256 0.2607
vn -0.8426 -0.4154 -0.3429
vn -0.2744 0.9256 -0.2607
vn -0.2771 0.8959 0.3473
vn 0.2771 0.8959 0.3473
vn 0.3535 -0.4282 -0.8317
vn -0.2771 0.8959 -0.3473
vn -0.3535 0.4282 -0.8317
vn -0.2197 -0.9715 -0.0894
vn 0.2197 -0.9715 0.0894
vn -0.2197 -0.9715 0.0894
vn -0.1022 -0.9652 -0.2405
vn 0.1022 -0.9652 0.2405
vn 0.2197 -0.9715 -0.0894
vn 0.1022 -0.9652 -0.2405
vn -0.1022 -0.9652 0.2405
vn -0.3535 0.4282 0.8317
vn 0.3535 -0.4282 0.8317
vn -0.2744 0.9256 0.2607
vn -0.8426 -0.4154 0.3429
vn 0.2744 0.9256 -0.2607
vn 0.8426 0.4154 0.3429
vn 0.3535 0.4282 -0.8317
vn 0.2197 0.9715 -0.0894
vn 0.1022 0.9652 0.2405
vn -0.3535 -0.4282 -0.8317
vn -0.1022 0.9652 -0.2405
vn -0.2197 0.9715 0.0894
vn 0.2197 0.9715 0.0894
vn 0.8426 -0.4154 -0.3429
vn -0.2197 0.9715 -0.0894
vn -0.8426 0.4154 -0.3429
vn -0.2771 -0.8959 -0.3473
vn 0.2771 -0.8959 0.3473
vn -0.2771 -0.8959 0.3473
vn -0.2744 -0.9256 -0.2607
vn 0.2744 -0.9256 0.2607
vn 0.2771 -0.8959 -0.3473
vn 0.2744 -0.9256 -0.2607
vn -0.2744 -0.9256 0.2607
vn -0.8426 0.4154 0.3429
vn 0.8426 -0.4154 0.3429
vn -0.1022 0.9652 0.2405
vn -0.3535 -0.4282 0.8317
vn 0.1022 0.9652 -0.2405
vn 0.3535 0.4282 0.8317
vt 0.231350 0.659912
vt 0.433961 0.663291
vt 0.462699 0.814926
vt 0.912172 0.403447
vt 1.000000 0.227927
vt 0.979056 0.471393
vt 0.904285 0.093520
vt 0.761546 0.000000
vt 0.988390 0.000000
vt 0.225906 0.252471
vt 0.251471 0.161470
vt 0.403764 0.101459
vt 0.604122 0.408285
vt 0.738454 0.504898
vt 0.511610 0.504898
vt 0.596236 0.101459
vt 0.500000 0.276971
vt 0.520944 0.033505
vt 0.580848 0.673838
vt 0.698998 0.648967
vt 0.698998 0.809946
vt 0.774094 0.252471
vt 0.759878 0.343435
vt 0.238454 0.000000
vt 0.261546 0.504898
vt 0.087829 0.403447
vt 0.240122 0.343435
vt 0.000000 0.227927
vt 0.155193 0.253498
vt 0.095715 0.093520
vt 0.395878 0.411385
vt 0.500000 0.276971
vt 0.336400 0.251408
vt 0.580848 0.665877
vt 0.462699 0.641007
vt 0.580848 0.560705
vt 0.202612 0.656533
vt 0.000000 0.659912
vt 0.231350 0.504898
vt 0.748529 0.161470
vt 0.462699 0.566906
vt 0.844807 0.253498
vt 0.663600 0.251408
vt 0.643652 0.571339
vt 0.479056 0.033505
vt 0.020944 0.471393
vt 0.011610 0.000000
vt 0.488390 0.504898
vt 0.525503 0.809946
vt 0.231349 0.814926
s 0
usemtl Material
f 24/1/1 7/2/1 10/3/1
f 10/4/2 14/5/2 18/6/2
f 21/7/3 16/8/3 26/9/3
f 23/10/4 4/11/4 11/12/4
f 20/13/5 15/14/5 25/15/5
f 12/16/6 13/17/6 17/18/6
f 16/8/7 12/16/7 17/18/7
f 23/19/8 8/20/8 19/21/8
f 15/14/9 10/4/9 18/6/9
f 24/22/10 3/23/10 20/13/10
f 15/24/11 11/12/11 4/11/11
f 16/25/12 9/26/12 6/27/12
f 9/26/13 13/28/13 2/29/13
f 22/30/14 15/24/14 4/11/14
f 19/31/15 16/25/15 6/27/15
f 11/12/16 14/32/16 8/33/16
f 14/32/17 19/31/17 8/33/17
f 13/28/18 22/30/18 2/29/18
f 1/34/19 24/35/19 20/36/19
f 6/27/20 23/10/20 19/31/20
f 13/17/21 20/13/21 25/15/21
f 2/37/22 23/38/22 9/39/22
f 14/5/23 21/7/23 26/9/23
f 5/40/24 24/22/24 12/16/24
f 24/1/25 21/41/25 7/2/25
f 10/4/26 7/42/26 14/5/26
f 21/7/27 5/40/27 16/8/27
f 23/10/28 22/30/28 4/11/28
f 20/13/29 3/23/29 15/14/29
f 12/16/30 1/43/30 13/17/30
f 16/8/31 5/40/31 12/16/31
f 23/19/32 11/44/32 8/20/32
f 15/14/33 3/23/33 10/4/33
f 24/22/34 10/4/34 3/23/34
f 15/24/35 18/45/35 11/12/35
f 16/25/36 17/46/36 9/26/36
f 9/26/37 17/46/37 13/28/37
f 22/30/38 25/47/38 15/24/38
f 19/31/39 26/48/39 16/25/39
f 11/12/40 18/45/40 14/32/40
f 14/32/41 26/48/41 19/31/41
f 13/28/42 25/47/42 22/30/42
f 1/34/43 12/49/43 24/35/43
f 6/27/44 9/26/44 23/10/44
f 13/17/45 1/43/45 20/13/45
f 2/37/46 22/50/46 23/38/46
f 14/5/47 7/42/47 21/7/47
f 5/40/48 21/7/48 24/22/48
