{
	"asset":{
		"generator":"Khronos glTF Blender I/O v3.5.30",
		"version":"2.0"
	},
	"scene":0,
	"scenes":[
		{
			"name":"Scene",
			"nodes":[
				0,
				1,
				2,
				3
			]
		}
	],
	"nodes":[
		{
			"mesh":0,
			"name":"ICO\u7403",
			"translation":[
				0,
				2,
				0
			]
		},
		{
			"mesh":1,
			"name":"\u7acb\u65b9\u4f53",
			"scale":[
				0.6818258762359619,
				0.6818258762359619,
				0.6818258762359619
			],
			"translation":[
				0,
				0.5125400424003601,
				0
			]
		},
		{
			"mesh":2,
			"name":"\u7acb\u65b9\u4f53.001",
			"rotation":[
				-0.5,
				0.5,
				0.5,
				0.5
			],
			"scale":[
				0.3512374460697174,
				0.4428556561470032,
				0.6670495867729187
			],
			"translation":[
				1.5,
				1.899999976158142,
				0
			]
		},
		{
			"mesh":3,
			"name":"\u7acb\u65b9\u4f53.002",
			"rotation":[
				0.5,
				0.5,
				-0.5,
				0.4999999701976776
			],
			"scale":[
				0.3512374460697174,
				0.4428556561470032,
				0.6670495867729187
			],
			"translation":[
				-1.5,
				1.899999976158142,
				0
			]
		}
	],
	"animations":[
		{
			"channels":[
				{
					"sampler":0,
					"target":{
						"node":0,
						"path":"translation"
					}
				},
				{
					"sampler":1,
					"target":{
						"node":0,
						"path":"rotation"
					}
				},
				{
					"sampler":2,
					"target":{
						"node":0,
						"path":"scale"
					}
				}
			],
			"name":"ICO\u7403Action",
			"samplers":[
				{
					"input":14,
					"interpolation":"LINEAR",
					"output":15
				},
				{
					"input":14,
					"interpolation":"LINEAR",
					"output":16
				},
				{
					"input":14,
					"interpolation":"LINEAR",
					"output":17
				}
			]
		},
		{
			"channels":[
				{
					"sampler":0,
					"target":{
						"node":1,
						"path":"translation"
					}
				},
				{
					"sampler":1,
					"target":{
						"node":1,
						"path":"rotation"
					}
				},
				{
					"sampler":2,
					"target":{
						"node":1,
						"path":"scale"
					}
				}
			],
			"name":"\u7acb\u65b9\u4f53Action",
			"samplers":[
				{
					"input":14,
					"interpolation":"LINEAR",
					"output":18
				},
				{
					"input":14,
					"interpolation":"LINEAR",
					"output":19
				},
				{
					"input":14,
					"interpolation":"LINEAR",
					"output":20
				}
			]
		},
		{
			"channels":[
				{
					"sampler":0,
					"target":{
						"node":2,
						"path":"translation"
					}
				},
				{
					"sampler":1,
					"target":{
						"node":2,
						"path":"rotation"
					}
				},
				{
					"sampler":2,
					"target":{
						"node":2,
						"path":"scale"
					}
				}
			],
			"name":"\u7acb\u65b9\u4f53.001Action",
			"samplers":[
				{
					"input":21,
					"interpolation":"LINEAR",
					"output":22
				},
				{
					"input":21,
					"interpolation":"LINEAR",
					"output":23
				},
				{
					"input":21,
					"interpolation":"LINEAR",
					"output":24
				}
			]
		},
		{
			"channels":[
				{
					"sampler":0,
					"target":{
						"node":3,
						"path":"translation"
					}
				},
				{
					"sampler":1,
					"target":{
						"node":3,
						"path":"rotation"
					}
				},
				{
					"sampler":2,
					"target":{
						"node":3,
						"path":"scale"
					}
				}
			],
			"name":"\u7acb\u65b9\u4f53.002Action",
			"samplers":[
				{
					"input":21,
					"interpolation":"LINEAR",
					"output":25
				},
				{
					"input":21,
					"interpolation":"LINEAR",
					"output":26
				},
				{
					"input":21,
					"interpolation":"LINEAR",
					"output":27
				}
			]
		}
	],
	"meshes":[
		{
			"name":"ICO\u7403",
			"primitives":[
				{
					"attributes":{
						"POSITION":0,
						"TEXCOORD_0":1,
						"NORMAL":2
					},
					"indices":3
				}
			]
		},
		{
			"name":"\u7acb\u65b9\u4f53",
			"primitives":[
				{
					"attributes":{
						"POSITION":4,
						"TEXCOORD_0":5,
						"NORMAL":6
					},
					"indices":7
				}
			]
		},
		{
			"name":"\u7acb\u65b9\u4f53.001",
			"primitives":[
				{
					"attributes":{
						"POSITION":8,
						"TEXCOORD_0":9,
						"NORMAL":10
					},
					"indices":7
				}
			]
		},
		{
			"name":"\u7acb\u65b9\u4f53.002",
			"primitives":[
				{
					"attributes":{
						"POSITION":11,
						"TEXCOORD_0":12,
						"NORMAL":13
					},
					"indices":7
				}
			]
		}
	],
	"accessors":[
		{
			"bufferView":0,
			"componentType":5126,
			"count":240,
			"max":[
				0.9510578513145447,
				1,
				0.9999999403953552
			],
			"min":[
				-0.9510578513145447,
				-1,
				-0.9999999403953552
			],
			"type":"VEC3"
		},
		{
			"bufferView":1,
			"componentType":5126,
			"count":240,
			"type":"VEC2"
		},
		{
			"bufferView":2,
			"componentType":5126,
			"count":240,
			"type":"VEC3"
		},
		{
			"bufferView":3,
			"componentType":5123,
			"count":240,
			"type":"SCALAR"
		},
		{
			"bufferView":4,
			"componentType":5126,
			"count":24,
			"max":[
				0.4525337815284729,
				1,
				0.4852978587150574
			],
			"min":[
				-0.4525337815284729,
				-0.7517555356025696,
				-0.4852978587150574
			],
			"type":"VEC3"
		},
		{
			"bufferView":5,
			"componentType":5126,
			"count":24,
			"type":"VEC2"
		},
		{
			"bufferView":6,
			"componentType":5126,
			"count":24,
			"type":"VEC3"
		},
		{
			"bufferView":7,
			"componentType":5123,
			"count":36,
			"type":"SCALAR"
		},
		{
			"bufferView":8,
			"componentType":5126,
			"count":24,
			"max":[
				0.28078073263168335,
				0.5961481332778931,
				0.4852978587150574
			],
			"min":[
				-0.28078073263168335,
				0.08380001783370972,
				-0.4852978587150574
			],
			"type":"VEC3"
		},
		{
			"bufferView":9,
			"componentType":5126,
			"count":24,
			"type":"VEC2"
		},
		{
			"bufferView":10,
			"componentType":5126,
			"count":24,
			"type":"VEC3"
		},
		{
			"bufferView":11,
			"componentType":5126,
			"count":24,
			"max":[
				0.28078073263168335,
				0.5961481332778931,
				0.4852978587150574
			],
			"min":[
				-0.28078073263168335,
				0.08380001783370972,
				-0.4852978587150574
			],
			"type":"VEC3"
		},
		{
			"bufferView":12,
			"componentType":5126,
			"count":24,
			"type":"VEC2"
		},
		{
			"bufferView":13,
			"componentType":5126,
			"count":24,
			"type":"VEC3"
		},
		{
			"bufferView":14,
			"componentType":5126,
			"count":21,
			"max":[
				0.8333333333333334
			],
			"min":[
				0
			],
			"type":"SCALAR"
		},
		{
			"bufferView":15,
			"componentType":5126,
			"count":21,
			"type":"VEC3"
		},
		{
			"bufferView":16,
			"componentType":5126,
			"count":21,
			"type":"VEC4"
		},
		{
			"bufferView":17,
			"componentType":5126,
			"count":21,
			"type":"VEC3"
		},
		{
			"bufferView":18,
			"componentType":5126,
			"count":21,
			"type":"VEC3"
		},
		{
			"bufferView":19,
			"componentType":5126,
			"count":21,
			"type":"VEC4"
		},
		{
			"bufferView":20,
			"componentType":5126,
			"count":21,
			"type":"VEC3"
		},
		{
			"bufferView":21,
			"componentType":5126,
			"count":81,
			"max":[
				3.3333333333333335
			],
			"min":[
				0
			],
			"type":"SCALAR"
		},
		{
			"bufferView":22,
			"componentType":5126,
			"count":81,
			"type":"VEC3"
		},
		{
			"bufferView":23,
			"componentType":5126,
			"count":81,
			"type":"VEC4"
		},
		{
			"bufferView":24,
			"componentType":5126,
			"count":81,
			"type":"VEC3"
		},
		{
			"bufferView":25,
			"componentType":5126,
			"count":81,
			"type":"VEC3"
		},
		{
			"bufferView":26,
			"componentType":5126,
			"count":81,
			"type":"VEC4"
		},
		{
			"bufferView":27,
			"componentType":5126,
			"count":81,
			"type":"VEC3"
		}
	],
	"bufferViews":[
		{
			"buffer":0,
			"byteLength":2880,
			"byteOffset":0,
			"target":34962
		},
		{
			"buffer":0,
			"byteLength":1920,
			"byteOffset":2880,
			"target":34962
		},
		{
			"buffer":0,
			"byteLength":2880,
			"byteOffset":4800,
			"target":34962
		},
		{
			"buffer":0,
			"byteLength":480,
			"byteOffset":7680,
			"target":34963
		},
		{
			"buffer":0,
			"byteLength":288,
			"byteOffset":8160,
			"target":34962
		},
		{
			"buffer":0,
			"byteLength":192,
			"byteOffset":8448,
			"target":34962
		},
		{
			"buffer":0,
			"byteLength":288,
			"byteOffset":8640,
			"target":34962
		},
		{
			"buffer":0,
			"byteLength":72,
			"byteOffset":8928,
			"target":34963
		},
		{
			"buffer":0,
			"byteLength":288,
			"byteOffset":9000,
			"target":34962
		},
		{
			"buffer":0,
			"byteLength":192,
			"byteOffset":9288,
			"target":34962
		},
		{
			"buffer":0,
			"byteLength":288,
			"byteOffset":9480,
			"target":34962
		},
		{
			"buffer":0,
			"byteLength":288,
			"byteOffset":9768,
			"target":34962
		},
		{
			"buffer":0,
			"byteLength":192,
			"byteOffset":10056,
			"target":34962
		},
		{
			"buffer":0,
			"byteLength":288,
			"byteOffset":10248,
			"target":34962
		},
		{
			"buffer":0,
			"byteLength":84,
			"byteOffset":10536
		},
		{
			"buffer":0,
			"byteLength":252,
			"byteOffset":10620
		},
		{
			"buffer":0,
			"byteLength":336,
			"byteOffset":10872
		},
		{
			"buffer":0,
			"byteLength":252,
			"byteOffset":11208
		},
		{
			"buffer":0,
			"byteLength":252,
			"byteOffset":11460
		},
		{
			"buffer":0,
			"byteLength":336,
			"byteOffset":11712
		},
		{
			"buffer":0,
			"byteLength":252,
			"byteOffset":12048
		},
		{
			"buffer":0,
			"byteLength":324,
			"byteOffset":12300
		},
		{
			"buffer":0,
			"byteLength":972,
			"byteOffset":12624
		},
		{
			"buffer":0,
			"byteLength":1296,
			"byteOffset":13596
		},
		{
			"buffer":0,
			"byteLength":972,
			"byteOffset":14892
		},
		{
			"buffer":0,
			"byteLength":972,
			"byteOffset":15864
		},
		{
			"buffer":0,
			"byteLength":1296,
			"byteOffset":16836
		},
		{
			"buffer":0,
			"byteLength":972,
			"byteOffset":18132
		}
	],
	"buffers":[
		{
			"byteLength":19104,
			"uri":"target.bin"
		}
	]
}
