# Blender v3.5.0 OBJ File: 'player.blend'
# www.blender.org
mtllib limbs.mtl
o 右足_立方体.004
v 0.100196 -1.325295 -0.000058
v 0.100196 -0.441705 -0.000058
v 0.100196 -1.325295 0.000058
v 0.100196 -0.441705 0.000058
v -0.100196 -1.325295 -0.000058
v -0.100196 -0.441705 -0.000058
v -0.100196 -1.325295 0.000058
v -0.100196 -0.441705 0.000058
v 0.100196 -0.883500 -0.100196
v 0.100196 -0.883500 0.100196
v -0.100196 -0.883500 0.100196
v -0.100196 -0.883500 -0.100196
v 0.100196 -1.325295 0.000000
v 0.100196 -0.441705 0.000000
v -0.100196 -1.325295 0.000000
v -0.100196 -0.441705 0.000000
v -0.200392 -0.883500 0.000000
v 0.200392 -0.883500 0.000000
v 0.000000 -1.767088 0.000058
v 0.000000 0.000088 0.000058
v 0.000000 -1.767088 -0.000058
v 0.000000 0.000088 -0.000058
v 0.000000 -0.883500 -0.200392
v 0.000000 -0.883500 0.200392
v 0.000000 0.000088 0.000000
v 0.000000 -1.767088 0.000000
vt 0.500000 0.125000
vt 0.625000 0.250000
vt 0.500000 0.250000
vt 0.500000 0.375000
vt 0.625000 0.500000
vt 0.500000 0.500000
vt 0.500000 0.625000
vt 0.625000 0.750000
vt 0.500000 0.750000
vt 0.500000 0.875000
vt 0.625000 1.000000
vt 0.500000 1.000000
vt 0.375000 0.625000
vt 0.250000 0.750000
vt 0.250000 0.625000
vt 0.875000 0.625000
vt 0.750000 0.750000
vt 0.750000 0.625000
vt 0.375000 1.000000
vt 0.375000 0.875000
vt 0.375000 0.750000
vt 0.375000 0.500000
vt 0.375000 0.375000
vt 0.375000 0.250000
vt 0.375000 0.125000
vt 0.375000 0.000000
vt 0.750000 0.500000
vt 0.250000 0.500000
vt 0.625000 0.000000
vt 0.500000 0.000000
vt 0.125000 0.625000
vt 0.125000 0.500000
vt 0.625000 0.625000
vt 0.125000 0.750000
vt 0.625000 0.125000
vt 0.625000 0.375000
vt 0.625000 0.875000
vt 0.875000 0.750000
vt 0.875000 0.500000
vn 0.6982 0.1583 0.6982
vn -0.6982 0.1583 0.6982
vn -0.6982 0.1583 -0.6982
vn 0.6982 0.1583 -0.6982
vn -0.9752 -0.2212 0.0000
vn 0.9752 0.2212 0.0000
vn 0.6981 -0.1583 -0.6983
vn -0.9752 -0.2212 -0.0015
vn -0.6981 -0.1583 0.6983
vn 0.9752 -0.2212 0.0015
vn 0.9752 -0.2212 -0.0017
vn -0.9752 -0.2212 0.0017
vn 0.9752 -0.2212 0.0019
vn -0.9752 0.2212 0.0013
vn 0.6981 -0.1583 0.6983
vn -0.6981 -0.1583 -0.6983
vn -0.9752 0.2212 -0.0013
vn 0.9752 -0.2212 -0.0023
vn 0.9752 0.2212 0.0016
vn -0.6981 0.1583 0.6983
vn -0.9752 0.2212 -0.0016
vn 0.6981 0.1583 -0.6983
vn -0.9752 -0.2212 -0.0023
vn 0.9752 0.2212 -0.0013
vn 0.6982 -0.1583 -0.6982
vn -0.6982 -0.1583 -0.6982
vn -0.6982 -0.1583 0.6982
vn 0.6982 -0.1583 0.6982
vn 0.9752 0.2212 0.0013
vn -0.9752 -0.2212 0.0019
vn -0.9752 0.2212 0.0017
vn 0.9752 0.2212 -0.0017
vn 0.9752 -0.2212 0.0000
vn -0.9752 0.2212 0.0000
vn -0.6981 0.1583 -0.6983
vn 0.6981 0.1583 0.6983
usemtl マテリアル
s off
f 18/1/1 4/2/1 10/3/1
f 24/4/2 8/5/2 11/6/2
f 17/7/3 6/8/3 12/9/3
f 23/10/4 2/11/4 9/12/4
f 15/13/5 21/14/5 26/15/5
f 14/16/6 22/17/6 25/18/6
f 23/10/7 1/19/7 21/20/7
f 17/7/8 5/21/8 15/13/8
f 24/4/9 7/22/9 19/23/9
f 18/1/10 3/24/10 13/25/10
f 1/26/11 18/1/11 13/25/11
f 7/22/12 17/7/12 15/13/12
f 20/27/6 14/16/6 25/18/6
f 19/28/5 15/13/5 26/15/5
f 8/5/2 17/7/2 11/6/2
f 2/29/4 18/1/4 9/30/4
f 19/28/13 13/31/13 3/32/13
f 20/27/14 16/33/14 8/5/14
f 3/24/15 24/4/15 19/23/15
f 5/21/16 23/10/16 21/20/16
f 16/33/17 22/17/17 6/8/17
f 13/31/18 21/14/18 1/34/18
f 6/8/3 23/10/3 12/9/3
f 4/2/1 24/4/1 10/3/1
f 18/1/19 14/35/19 4/2/19
f 24/4/20 20/36/20 8/5/20
f 17/7/21 16/33/21 6/8/21
f 23/10/22 22/37/22 2/11/22
f 15/13/23 5/21/23 21/14/23
f 14/16/24 2/38/24 22/17/24
f 23/10/25 9/12/25 1/19/25
f 17/7/26 12/9/26 5/21/26
f 24/4/27 11/6/27 7/22/27
f 18/1/28 10/3/28 3/24/28
f 1/26/25 9/30/25 18/1/25
f 7/22/27 11/6/27 17/7/27
f 20/27/29 4/39/29 14/16/29
f 19/28/30 7/22/30 15/13/30
f 8/5/31 16/33/31 17/7/31
f 2/29/32 14/35/32 18/1/32
f 19/28/33 26/15/33 13/31/33
f 20/27/34 25/18/34 16/33/34
f 3/24/28 10/3/28 24/4/28
f 5/21/26 12/9/26 23/10/26
f 16/33/34 25/18/34 22/17/34
f 13/31/33 26/15/33 21/14/33
f 6/8/35 22/37/35 23/10/35
f 4/2/36 20/36/36 24/4/36
